<svg xmlns="http://www.w3.org/2000/svg" viewBox="0 0 68 36.3"><path d="M58.9 15.3h.3c2.3.6 4.4 1.4 6.3 2.8 1.3 1 2.2 2.2 2.5 3.8.2 1.4-.1 2.6-.8 3.8-.9 1.5-2.1 2.6-3.5 3.5-2.6 1.8-5.5 3-8.5 3.9-4.1 1.3-8.3 2.1-12.5 2.6-3.5.4-7.1.6-10.6.5-6.9-.2-13.5-1-20-3.2-2.8-1-5.6-2.1-8-3.9-1.1-.8-2.1-1.7-2.8-2.8-2-2.8-1.6-5.8 1-8 1.4-1.2 3.1-2 4.8-2.5.7-.2 1.3-.4 2-.5-.3.2-.6.4-.9.5-1.3.8-2.6 1.6-3.7 2.7-.6.6-1.1 1.2-1.5 1.9-.8 1.3-.6 2.5.4 3.6.6.6 1.2 1.1 1.8 1.5 1.8 1.2 3.8 1.8 5.9 2.4 4.3 1.2 8.7 1.8 13.2 2.1 5.5.3 11.1.4 16.6.2 5.4-.2 10.7-.7 16-2.2 1.9-.5 3.7-1.1 5.4-2.1.8-.5 1.5-1 2.2-1.6 1.3-1.2 1.4-2.6.4-4.1-.8-1.3-2-2.3-3.3-3.2-.7-.5-1.5-.9-2.2-1.4l-.5-.3z" fill="currentColor"></path> <path d="M40.6 13.4c0-1.8.2-3.5 1-5.1C43.2 5 46.7 3.5 50 4.8c1.9.7 3.2 2.1 3.9 3.9 1.2 3.2 1.2 6.5-.1 9.7-1.1 2.7-3.2 4-6.2 4-2.9 0-5-1.4-6.2-4.1-.5-1.3-.8-3-.8-4.9zm4 0v1.1c.1 1.1.3 2.2.9 3.2 1.1 1.7 3.3 1.7 4.3 0 .3-.4.5-.9.6-1.4.4-1.6.4-3.2.2-4.8-.1-.9-.4-1.8-.9-2.6-1-1.4-2.9-1.5-4 0-.3.4-.5.8-.6 1.2-.4 1-.5 2.2-.5 3.3zM32.7 10.5c2.5-.7 6 1.2 6.6 4.8.1.8.1 1.6 0 2.4-.3 2.1-1.6 3.4-3.5 4.2-2.1.8-4.1.7-6.2-.2-2.7-1.2-3.9-3.5-3.6-6.4.2-1.3.6-2.6 1.3-3.7.6-.9 1.2-1.8 1.9-2.6 1.1-1.4 2.2-2.7 3.4-4 .2-.2.4-.3.6-.3h4.5c-1.7 2-3.4 3.9-5 5.8zm2.7 6c0-1.5-1.2-2.7-2.7-2.7-1.5 0-2.7 1.2-2.7 2.7 0 1.5 1.1 2.6 2.7 2.6 1.5 0 2.7-1.1 2.7-2.6zM22.5 12.7c1.2.8 2 1.9 2.2 3.3.3 2.5-.9 4.6-3.1 5.7-2.6 1.3-6.2.9-8.2-1-.8-.7-1.4-1.6-1.7-2.6l3.6-1.8.3.9c.6 1.5 2.2 2.2 3.7 1.6.1-.1.3-.1.4-.2.9-.5 1.2-1.3 1.1-2.2-.1-1.1-.6-1.8-1.7-2.2-.5-.2-1-.1-1.6-.2v-2.4h.8c1.2 0 2.1-1 2.1-2.2 0-1.1-.9-1.9-2-2-1.1-.1-2.1.5-2.5 1.6-.1.2-.1.3-.2.5-1-.5-2-.9-2.9-1.4-.1 0-.1-.3-.1-.4.4-1 1-1.9 1.9-2.4 2.1-1.4 5.5-1.4 7.5.1 1.7 1.2 2.4 3.5 1.7 5.4-.3.8-.7 1.4-1.3 1.9zM54.5 2.9c0-1.6 1.3-2.9 2.9-2.9 1.6 0 2.9 1.3 2.9 2.9 0 1.6-1.3 2.9-3 2.9-1.5 0-2.8-1.3-2.8-2.9zm4.4 0c0-.8-.7-1.4-1.5-1.4S56 2.2 56 3s.7 1.4 1.5 1.4c.7 0 1.4-.7 1.4-1.5z" fill="currentColor"></path></svg>
